<svg xmlns="http://www.w3.org/2000/svg" viewBox="0 0 512 512">
  <rect width="512" height="512" rx="112" fill="#fffdfb"/>
  <path
    fill="none"
    stroke="#f1b2a8"
    stroke-linecap="round"
    stroke-linejoin="round"
    stroke-width="34"
    d="M154 185c-20-24-56-35-91-20-32 14-43 51-19 72 15 13 39 16 63 19 38 5 76 14 77 51 1 39-39 60-79 58-34-2-61-17-82-43"
  />
  <path
    fill="none"
    stroke="#f1b2a8"
    stroke-linecap="round"
    stroke-width="34"
    d="M207 154v204M257 154v204"
  />
  <circle cx="327" cy="256" r="76" fill="none" stroke="#f1b2a8" stroke-width="34"/>
  <path
    fill="none"
    stroke="#f1b2a8"
    stroke-linecap="round"
    stroke-linejoin="round"
    stroke-width="34"
    d="M424 156v132c0 43 31 77 71 77M424 288c0 43-30 77-70 77"
  />
</svg>
